<?xml version="1.0" encoding="UTF-8" standalone="no"?><!DOCTYPE svg PUBLIC "-//W3C//DTD SVG 1.1//EN" "http://www.w3.org/Graphics/SVG/1.1/DTD/svg11.dtd"><svg width="100%" height="100%" viewBox="0 0 800 800" version="1.1" xmlns="http://www.w3.org/2000/svg" xmlns:xlink="http://www.w3.org/1999/xlink" xml:space="preserve" xmlns:serif="http://www.serif.com/" style="fill-rule:evenodd;clip-rule:evenodd;stroke-linejoin:round;stroke-miterlimit:2;"><path d="M104.3,44.675c-34.9,20.7 -103.625,99.6 -104.3,120.3l0,34.375c0,43.375 40.625,81.675 77.475,81.675c44.275,0 81.275,-36.725 81.275,-80.325c0,43.6 35.525,80.325 79.925,80.325c44.275,0 78.775,-36.725 78.775,-80.325c0,43.6 37.9,80.325 82.175,80.325l0.8,0c44.4,0 82.275,-36.725 82.275,-80.325c0,43.6 34.525,80.325 78.8,80.325c44.275,0 79.925,-36.725 79.925,-80.325c0,43.6 36.875,80.325 81.125,80.325c36.975,0 77.6,-38.3 77.6,-81.675l0,-34.375c-0.8,-20.7 -69.4,-99.6 -104.425,-120.3c-108.475,-3.9 -183.6,-4.575 -295.575,-4.575c-112.1,0.125 -264.825,1.825 -295.7,4.575l-0.15,0Zm212.625,215.85c-4.575,7.7 -9.625,14.2 -15.625,19.925l0,0.125c-16.8,16.275 -39.7,26.425 -64.975,26.425c-25.4,0 -48.3,-10.175 -64.975,-26.575c-6.125,-5.875 -10.7,-12.225 -15,-19.675c-4.175,7.425 -10,13.8 -16.125,19.675c-16.8,16.4 -39.7,26.575 -64.975,26.575l-0.125,0c-3,0 -6.125,-0.9 -8.725,-1.825c-3.5,37.125 -5.075,72.525 -5.6,98.425l0,0.125c-0.125,13.175 -0.125,23.825 -0.275,38.8c0.8,77.875 -7.675,252.225 34.4,295.075c65.1,15.1 184.9,22 304.925,22.125l0.125,0c120.175,-0.125 239.825,-7.025 304.925,-22.125c42.075,-42.825 33.6,-217.2 34.4,-295.075c-0.125,-14.975 -0.125,-25.625 -0.275,-38.8l0,-0.125c-0.525,-25.9 -1.975,-61.3 -5.6,-98.425c-2.475,0.925 -5.725,1.825 -8.725,1.825l-0.125,0c-25.275,0 -48.175,-10.175 -64.975,-26.575l0.125,0c-6.125,-5.875 -11.975,-12.225 -16.125,-19.675l-0.125,0c-4.175,7.425 -8.875,13.8 -14.875,19.675c-16.675,16.4 -39.575,26.575 -64.975,26.575c-25.275,0 -48.175,-10.175 -64.975,-26.575c-6,-5.725 -11.075,-12.375 -15.375,-19.675l-0.275,-0.4c-4.3,7.7 -9.5,14.325 -15.375,20.075c-16.8,16.4 -39.7,26.575 -64.975,26.575l-0.125,0c-0.775,0 -1.7,0 -2.6,-0.125c-0.9,0.125 -1.825,0.125 -2.725,0.125l-0.125,0c-25.275,0 -48.175,-10.175 -64.825,-26.575c-6,-5.725 -11.075,-12.375 -15.225,-19.675l-0.275,-0.4l0.175,0.175Zm-66.8,86.35c26.425,0.125 49.875,0 79.025,31.775c22.9,-2.325 46.875,-3.5 70.825,-3.5c23.95,0 47.925,1.175 70.825,3.5c29.175,-31.775 52.6,-31.775 79.025,-31.775l0.125,0c12.5,0 62.5,0 97.275,97.8l37.375,134.225c27.725,99.875 -8.875,102.375 -54.425,102.375c-67.7,-2.5 -105.2,-51.7 -105.2,-100.925c-37.5,6.275 -81.275,9.275 -125,9.275c-43.725,0 -87.5,-3 -124.875,-9.275c0,49.225 -37.5,98.425 -105.2,100.925c-45.7,-0.125 -82.3,-2.5 -54.575,-102.375l37.375,-134.225c34.9,-97.8 84.9,-97.8 97.4,-97.8l0.025,0Zm149.875,76.95c-0.125,0 -71.225,65.5 -84.1,88.675l46.6,-1.825l0,40.625c0,1.975 18.775,1.175 37.5,0.275c18.725,0.9 37.375,1.7 37.375,-0.275l0,-40.625l46.725,1.825c-12.875,-23.175 -84.1,-88.675 -84.1,-88.675Z" style="fill:#fff;fill-rule:nonzero;"/></svg>